# File created by Blade
# Date/Time:  Tue Sep 30 19:08:00 2014
#---------------------------------------------------------
:version 1.10
:name HOM
:units
  mass 1.0
  length 1.000000
  angle deg
:documentation
     Acclaim Skeleton File
:root
   axis xyz
   order TX TY TZ RX RY RZ
   position 0.000000 0.000000 0.000000
   orientation 0 0 0
:bonedata
   begin
      id 1
      name Spine_dum
      direction 0.000000 1.000000 0.000000
      length 7.508948
      axis 0.0 0.0 0.0 xyz
   end
   begin
      id 2
      name LeftUpLeg_dum
      direction 1.000000 0.000000 0.000000
      length 3.000560
      axis 0.0 0.0 0.0 xyz
   end
   begin
      id 3
      name RightUpLeg_dum
      direction -1.000000 0.000000 0.000000
      length 3.000560
      axis 0.0 0.0 0.0 xyz
   end
   begin
      id 4
      name Spine
      direction 0.000000 1.000000 0.000000
      length 0.000000
      axis 0.0 0.0 0.0 xyz
      dof rx ry rz
   end
   begin
      id 5
      name Spine_dum1
      direction 0.000000 1.000000 0.000000
      length 13.861154
      axis 0.0 0.0 0.0 xyz
   end
   begin
      id 6
      name Spine_dum2
      direction 0.000000 1.000000 0.000000
      length 8.204781
      axis 0.0 0.0 0.0 xyz
   end
   begin
      id 7
      name Spine_dum3
      direction 0.000000 1.000000 0.000000
      length 8.204781
      axis 0.0 0.0 0.0 xyz
   end
   begin
      id 8
      name Head
      direction 0.000000 1.000000 0.000000
      length 4.527550
      axis 0.0 0.0 0.0 xyz
      dof rx ry rz
   end
   begin
      id 9
      name LeftShoulder
      direction 1.000000 0.000000 0.000000
      length 6.635956
      axis 0.0 0.0 -90.0 xyz
      dof rx ry rz
   end
   begin
      id 10
      name LeftArm
      direction 1.000000 0.000000 0.000000
      length 10.274218
      axis 0.0 0.0 -90.0 xyz
      dof rx ry rz
   end
   begin
      id 11
      name LeftForeArm
      direction 1.000000 0.000000 0.000000
      length 8.522147
      axis 0.0 0.0 -90.0 xyz
      dof ry rz rx
   end
   begin
      id 12
      name LeftHand
      direction 0.000000 0.000000 0.000000
      length 0.000000
      axis 0.0 0.0 -90.0 xyz
      dof rx ry rz
   end
   begin
      id 13
      name LeftHand_dum1
      direction 0.000000 0.000000 0.000000
      length 0.000000
      axis 0.0 0.0 -90.0 xyz
   end
   begin
      id 14
      name LeftHand_dum2
      direction 1.000000 0.000000 0.000000
      length 3.937000
      axis 0.0 0.0 -90.0 xyz
   end
   begin
      id 15
      name LeftHandThumb1
      direction 0.000000 0.000000 1.000000
      length 3.937000
      axis 0.0 0.0 -90.0 xyz
      dof rx rz ry
   end
   begin
      id 16
      name RightShoulder
      direction -1.000000 0.000000 0.000000
      length 6.635956
      axis 0.0 0.0 90.0 xyz
      dof rx ry rz
   end
   begin
      id 17
      name RightArm
      direction -1.000000 0.000000 0.000000
      length 10.274218
      axis 0.0 0.0 90.0 xyz
      dof rx ry rz
   end
   begin
      id 18
      name RightForeArm
      direction -1.000000 0.000000 0.000000
      length 8.522147
      axis 0.0 0.0 90.0 xyz
      dof ry rz rx
   end
   begin
      id 19
      name RightHand
      direction 0.000000 0.000000 0.000000
      length 0.000000
      axis 0.0 0.0 90.0 xyz
      dof rx ry rz
   end
   begin
      id 20
      name RightHand_dum1
      direction 0.000000 0.000000 0.000000
      length 0.000000
      axis 0.0 0.0 90.0 xyz
   end
   begin
      id 21
      name RightHand_dum2
      direction -1.000000 0.000000 0.000000
      length 3.937000
      axis 0.0 0.0 90.0 xyz
   end
   begin
      id 22
      name RightHandThumb1
      direction 0.000000 0.000000 1.000000
      length 3.937000
      axis 0.0 0.0 90.0 xyz
      dof rx rz ry
   end
   begin
      id 23
      name LeftUpLeg
      direction 0.000000 -1.000000 0.000000
      length 16.490845
      axis 0.0 0.0 0.0 xyz
      dof rx ry rz
   end
   begin
      id 24
      name LeftLeg
      direction 0.000000 -1.000000 0.000000
      length 14.556576
      axis 0.0 0.0 0.0 xyz
      dof rx ry rz
   end
   begin
      id 25
      name LeftFoot
      direction 0.000000 -0.258819 0.965926
      length 4.831116
      axis 15.0 0.0 0.0 xyz
      dof rx ry rz
   end
   begin
      id 26
      name LeftToeBase
      direction 0.000000 0.000000 1.000000
      length 2.952750
      axis 0.0 0.0 0.0 xyz
      dof rx ry rz
   end
   begin
      id 27
      name RightUpLeg
      direction 0.000000 -1.000000 0.000000
      length 16.490845
      axis 0.0 0.0 0.0 xyz
      dof rx ry rz
   end
   begin
      id 28
      name RightLeg
      direction 0.000000 -1.000000 0.000000
      length 14.556576
      axis 0.0 0.0 0.0 xyz
      dof rx ry rz
   end
   begin
      id 29
      name RightFoot
      direction 0.000000 -0.258819 0.965926
      length 4.831116
      axis 15.0 0.0 0.0 xyz
      dof rx ry rz
   end
   begin
      id 30
      name RightToeBase
      direction 0.000000 0.000000 1.000000
      length 2.952750
      axis 0.0 0.0 0.0 xyz
      dof rx ry rz
   end
:hierarchy
   begin
      root Spine_dum LeftUpLeg_dum RightUpLeg_dum
      Spine_dum Spine
      LeftUpLeg_dum LeftUpLeg
      RightUpLeg_dum RightUpLeg
      Spine Spine_dum1 Spine_dum2 Spine_dum3
      Spine_dum1 Head
      Spine_dum2 LeftShoulder
      Spine_dum3 RightShoulder
      LeftShoulder LeftArm
      LeftArm LeftForeArm
      LeftForeArm LeftHand
      LeftHand LeftHand_dum1 LeftHand_dum2
      LeftHand_dum1 LeftHandThumb1
      RightShoulder RightArm
      RightArm RightForeArm
      RightForeArm RightHand
      RightHand RightHand_dum1 RightHand_dum2
      RightHand_dum1 RightHandThumb1
      LeftUpLeg LeftLeg
      LeftLeg LeftFoot
      LeftFoot LeftToeBase
      RightUpLeg RightLeg
      RightLeg RightFoot
      RightFoot RightToeBase
   end

# File created by Blade
# Date/Time:  Thu Sep 25 19:43:58 2014
# Frame Rate: 120.000 fps
#------------------------------------------------------
:FULLY-SPECIFIED
:DEGREES
175
root -1.426920 32.531079 -2.541121 11.711414 9.360913 -2.057978
Spine -11.582180 5.717742 8.771609
Head -6.787337 -0.097785 -0.459074
LeftShoulder -16.790440 23.952213 13.628928
LeftArm 20.404870 -5.455260 -53.387426
LeftForeArm 8.726842 -0.000000 15.073986
LeftHand -22.934359 -0.000000 -12.428457
LeftHandThumb1 -26.253704 0.000000 33.147579
RightShoulder -20.616360 13.095813 -36.499721
RightArm -6.384829 6.204526 34.666653
RightForeArm -28.768596 0.000000 14.953858
RightHand -10.333700 0.000000 12.059383
RightHandThumb1 -24.326973 -0.000000 -32.862282
LeftUpLeg -14.657665 21.551622 20.369282
LeftLeg 7.245311 -0.000000 -0.000000
LeftFoot 1.485483 20.105462 -21.212219
LeftToeBase 2.835046 -0.000000 -0.000000
RightUpLeg -5.463296 -4.637603 -0.837422
RightLeg -1.067690 -0.000000 0.000000
RightFoot -10.228329 -10.814680 5.523339
RightToeBase 1.545950 -0.000000 -0.000000
176
root -1.309948 32.509857 -2.536874 11.809778 9.426205 -2.213018
Spine -11.768821 5.717476 8.777274
Head -6.843794 -0.150951 -0.358689
LeftShoulder -16.837272 24.125771 13.464772
LeftArm 20.293550 -5.316351 -53.651204
LeftForeArm 9.022998 -0.000000 14.963194
LeftHand -22.634508 0.000000 -12.600134
LeftHandThumb1 -26.253704 0.000000 33.147579
RightShoulder -20.636377 12.982749 -36.355876
RightArm -6.556960 6.273640 34.820981
RightForeArm -28.708728 -0.000000 15.064059
RightHand -10.575762 -0.000000 11.890609
RightHandThumb1 -24.326973 -0.000000 -32.862282
LeftUpLeg -14.375473 21.267900 20.889546
LeftLeg 6.571335 -0.000000 -0.000000
LeftFoot 2.985445 19.320616 -20.844770
LeftToeBase 2.790773 -0.000000 -0.000000
RightUpLeg -5.543374 -4.626730 -0.880128
RightLeg -1.049927 -0.000000 0.000000
RightFoot -10.305892 -10.864870 5.680453
RightToeBase 1.630525 -0.000000 -0.000000
177
root -1.193164 32.488930 -2.530385 11.904483 9.517612 -2.366540
Spine -11.970028 5.645364 8.754131
Head -6.855965 -0.202637 -0.176261
LeftShoulder -16.918249 24.250639 13.324223
LeftArm 20.169660 -5.098411 -53.857904
LeftForeArm 9.075159 -0.000000 14.815051
LeftHand -22.524706 -0.000000 -12.799746
LeftHandThumb1 -26.253704 0.000000 33.147579
RightShoulder -20.645628 12.912434 -36.219258
RightArm -6.746586 6.373341 35.042387
RightForeArm -28.757855 -0.000000 15.156579
RightHand -10.535058 0.000000 11.565881
RightHandThumb1 -24.326973 -0.000000 -32.862282
LeftUpLeg -14.097811 20.850620 21.416744
LeftLeg 5.965159 -0.000000 -0.000000
LeftFoot 4.409832 18.432650 -20.411174
LeftToeBase 2.684742 -0.000000 -0.000000
RightUpLeg -5.591252 -4.607243 -0.932041
RightLeg -1.070776 -0.000000 0.000000
RightFoot -10.350315 -10.890204 5.911005
RightToeBase 1.609311 -0.000000 -0.000000
178
root -1.067818 32.467687 -2.523942 11.979861 9.620798 -2.494201
Spine -12.143949 5.612403 8.703825
Head -6.886128 -0.320442 -0.022563
LeftShoulder -16.881341 24.276115 13.216662
LeftArm 19.927725 -4.911887 -54.039588
LeftForeArm 9.002611 -0.000000 14.741862
LeftHand -22.459798 -0.000000 -13.072562
LeftHandThumb1 -26.253704 0.000000 33.147579
RightShoulder -20.698815 12.817227 -36.123125
RightArm -6.939177 6.428633 35.287418
RightForeArm -28.728682 -0.000000 15.211937
RightHand -10.645681 -0.000000 11.327623
RightHandThumb1 -24.326973 -0.000000 -32.862282
LeftUpLeg -13.827146 20.382304 21.878783
LeftLeg 5.435280 -0.000000 -0.000000
LeftFoot 5.778713 17.596765 -20.037347
LeftToeBase 2.613213 -0.000000 -0.000000
RightUpLeg -5.608869 -4.611296 -1.013301
RightLeg -1.103023 -0.000000 0.000000
RightFoot -10.401164 -10.969504 6.095388
RightToeBase 1.648049 -0.000000 -0.000000
179
root -0.936777 32.447462 -2.519047 12.072413 9.736332 -2.619860
Spine -12.318040 5.547130 8.644325
Head -6.967174 -0.457957 0.161202
LeftShoulder -16.904238 24.338949 13.107960
LeftArm 19.762560 -4.750800 -54.259462
LeftForeArm 9.032290 -0.000000 14.635514
LeftHand -22.418661 -0.000000 -13.482393
LeftHandThumb1 -26.253704 0.000000 33.147579
RightShoulder -20.694212 12.764244 -36.010630
RightArm -7.218185 6.557144 35.537977
RightForeArm -28.712072 0.000000 15.332043
RightHand -10.641222 -0.000000 11.180959
RightHandThumb1 -24.326973 -0.000000 -32.862282
LeftUpLeg -13.607330 19.882348 22.290148
LeftLeg 5.007465 -0.000000 -0.000000
LeftFoot 7.089765 16.845492 -19.867909
LeftToeBase 2.487713 -0.000000 -0.000000
RightUpLeg -5.656538 -4.648140 -1.096101
RightLeg -1.117283 -0.000000 0.000000
RightFoot -10.405851 -11.136356 6.185793
RightToeBase 1.613569 -0.000000 -0.000000
180
root -0.805340 32.426961 -2.513214 12.125403 9.901136 -2.751127
Spine -12.462301 5.443639 8.589909
Head -7.033511 -0.599231 0.350776
LeftShoulder -16.890910 24.444292 12.990309
LeftArm 19.655864 -4.616951 -54.443772
LeftForeArm 8.915497 0.000000 14.520981
LeftHand -22.307820 0.000000 -13.691738
LeftHandThumb1 -26.253704 0.000000 33.147579
RightShoulder -20.751014 12.676734 -35.886501
RightArm -7.401316 6.648681 35.797961
RightForeArm -28.737334 -0.000000 15.403313
RightHand -10.681951 -0.000000 11.215587
RightHandThumb1 -24.326973 -0.000000 -32.862282
LeftUpLeg -13.399123 19.268346 22.702678
LeftLeg 4.681040 -0.000000 -0.000000
LeftFoot 8.686760 16.039827 -19.555543
LeftToeBase 1.948741 -0.000000 -0.000000
RightUpLeg -5.651718 -4.791996 -1.166656
RightLeg -1.139947 -0.000000 0.000000
RightFoot -10.427823 -11.110835 6.367562
RightToeBase 1.599086 -0.000000 -0.000000
181
root -0.666119 32.404126 -2.509547 12.184799 10.032612 -2.892569
Spine -12.593304 5.401034 8.537337
Head -7.144889 -0.783209 0.537528
LeftShoulder -16.871941 24.496308 12.927316
LeftArm 19.544829 -4.399022 -54.649915
LeftForeArm 8.818685 -0.000000 14.390780
LeftHand -22.298259 -0.000000 -13.869726
LeftHandThumb1 -26.253704 0.000000 33.147579
RightShoulder -20.777677 12.592653 -35.745401
RightArm -7.608589 6.691937 36.020816
RightForeArm -28.724026 -0.000000 15.426743
RightHand -10.616357 -0.000000 11.213364
RightHandThumb1 -24.326973 -0.000000 -32.862282
LeftUpLeg -13.207293 18.730333 23.058779
LeftLeg 4.422655 -0.000000 -0.000000
LeftFoot 10.192893 15.475327 -19.900308
LeftToeBase 1.824720 -0.000000 -0.000000
RightUpLeg -5.651317 -4.803055 -1.253419
RightLeg -1.177500 -0.000000 0.000000
RightFoot -10.435439 -11.238861 6.495700
RightToeBase 1.591802 -0.000000 -0.000000
182
root -0.522731 32.382407 -2.509163 12.237405 10.152457 -3.058706
Spine -12.703688 5.370066 8.505823
Head -7.248596 -0.932969 0.757490
LeftShoulder -16.866801 24.490912 12.870481
LeftArm 19.421601 -4.234404 -54.885480
LeftForeArm 8.823254 -0.000000 14.289375
LeftHand -22.231660 -0.000000 -14.125376
LeftHandThumb1 -26.253704 0.000000 33.147579
RightShoulder -20.817488 12.537368 -35.621958
RightArm -7.793856 6.737044 36.270125
RightForeArm -28.811443 -0.000000 15.388998
RightHand -10.647208 0.000000 11.192103
RightHandThumb1 -24.326973 -0.000000 -32.862282
LeftUpLeg -13.034931 18.126778 23.409105
LeftLeg 4.307418 -0.000000 -0.000000
LeftFoot 11.624432 15.112082 -20.502078
LeftToeBase 2.174561 -0.000000 -0.000000
RightUpLeg -5.640820 -4.788714 -1.329225
RightLeg -1.247075 -0.000000 0.000000
RightFoot -10.396208 -11.353257 6.687011
RightToeBase 1.570839 -0.000000 -0.000000
183
root -0.374179 32.357361 -2.508226 12.271072 10.244652 -3.215903
Spine -12.779363 5.358376 8.458595
Head -7.387613 -1.089507 0.964824
LeftShoulder -16.843668 24.503115 12.831599
LeftArm 19.301604 -4.053131 -55.096300
LeftForeArm 8.793244 -0.000000 14.216081
LeftHand -22.199480 -0.000000 -14.329451
LeftHandThumb1 -26.253704 0.000000 33.147579
RightShoulder -20.859076 12.480375 -35.531317
RightArm -8.001102 6.729300 36.559425
RightForeArm -28.945706 -0.000000 15.371873
RightHand -10.619699 -0.000000 11.388561
RightHandThumb1 -24.326973 -0.000000 -32.862282
LeftUpLeg -12.861345 17.571811 23.702200
LeftLeg 4.357149 -0.000000 -0.000000
LeftFoot 11.424298 15.342420 -24.115431
LeftToeBase 4.327158 -0.000000 -0.000000
RightUpLeg -5.645650 -4.786738 -1.420040
RightLeg -1.239396 -0.000000 0.000000
RightFoot -10.426914 -11.469452 6.832013
RightToeBase 1.552143 -0.000000 -0.000000
184
root -0.216925 32.329200 -2.504605 12.227031 10.334258 -3.386674
Spine -12.750329 5.349014 8.438547
Head -7.563149 -1.269205 1.184479
LeftShoulder -16.820361 24.527996 12.784162
LeftArm 19.215356 -3.925719 -55.340431
LeftForeArm 8.922488 0.000000 14.171960
LeftHand -22.006485 0.000000 -14.597026
LeftHandThumb1 -26.253704 0.000000 33.147579
RightShoulder -20.869004 12.394036 -35.377336
RightArm -8.150917 6.746453 36.799989
RightForeArm -28.873888 -0.000000 15.307111
RightHand -10.633402 -0.000000 11.556076
RightHandThumb1 -24.326973 -0.000000 -32.862282
LeftUpLeg -12.628238 17.029282 23.952683
LeftLeg 4.513907 -0.000000 -0.000000
LeftFoot 9.779985 15.905084 -28.871299
LeftToeBase 4.667342 -0.000000 -0.000000
RightUpLeg -5.531479 -4.741517 -1.530139
RightLeg -1.306702 -0.000000 0.000000
RightFoot -10.420106 -11.596418 7.011673
RightToeBase 1.516118 -0.000000 -0.000000
185
root -0.053171 32.297872 -2.503615 12.166510 10.390719 -3.582694
Spine -12.694170 5.354826 8.470948
Head -7.724868 -1.434156 1.339754
LeftShoulder -16.814108 24.518369 12.728448
LeftArm 19.115046 -3.794958 -55.570340
LeftForeArm 8.920572 -0.000000 14.158229
LeftHand -22.057648 0.000000 -14.859256
LeftHandThumb1 -26.253704 0.000000 33.147579
RightShoulder -20.879577 12.332345 -35.278259
RightArm -8.270192 6.677116 37.082434
RightForeArm -28.775614 -0.000000 15.215338
RightHand -10.679912 -0.000000 11.373267
RightHandThumb1 -24.326973 -0.000000 -32.862282
LeftUpLeg -12.425615 16.844093 24.078406
LeftLeg 4.602809 -0.000000 -0.000000
LeftFoot 8.487541 16.359833 -31.709290
LeftToeBase 2.571933 -0.000000 -0.000000
RightUpLeg -5.435491 -4.772222 -1.618542
RightLeg -1.326560 -0.000000 0.000000
RightFoot -10.443623 -11.624791 7.175256
RightToeBase 1.565607 -0.000000 -0.000000
186
root 0.119426 32.267234 -2.503305 12.137625 10.438627 -3.744998
Spine -12.677809 5.374804 8.451916
Head -7.848107 -1.570709 1.548364
LeftShoulder -16.771158 24.492146 12.695039
LeftArm 18.980260 -3.534203 -55.733517
LeftForeArm 8.894725 -0.000000 14.122989
LeftHand -21.954562 -0.000000 -14.787002
LeftHandThumb1 -26.253704 0.000000 33.147579
RightShoulder -20.890949 12.216029 -35.188124
RightArm -8.404297 6.724769 37.423442
RightForeArm -28.704926 -0.000000 15.184742
RightHand -10.686502 -0.000000 11.425902
RightHandThumb1 -24.326973 -0.000000 -32.862282
LeftUpLeg -12.271663 16.826789 24.034338
LeftLeg 4.569838 -0.000000 -0.000000
LeftFoot 7.416789 16.617571 -33.558903
LeftToeBase 1.474794 -0.000000 -0.000000
RightUpLeg -5.376461 -4.805680 -1.761690
RightLeg -1.314306 -0.000000 0.000000
RightFoot -10.472507 -11.618921 7.395951
RightToeBase 1.577664 -0.000000 -0.000000
